<svg width="6068" height="3898" viewBox="0 0 6068 3898" fill="none" xmlns="http://www.w3.org/2000/svg">
<path d="M4.2793 3C1304.14 202.979 3106.68 2475.92 2940.33 3266.29C2831.26 3784.42 1553.3 3772.79 1204.15 3866.23C728.021 3993.49 1629.56 3517.09 1813.18 2966.33C2031.34 2311.85 1700.19 591.302 2750.72 893.816C3667.53 1157.97 3866.06 2013.52 4523.26 1993.7C5117.65 1975.52 5580.69 1257.41 5877.66 657.477" stroke="#4A3AFF" stroke-width="5" stroke-miterlimit="10"/>
<path d="M4.18945 55.4492C1249.51 278.426 2983.6 2479.65 2844.98 3236.93C2754.08 3733.06 1543.76 3716.52 1220.7 3800.51C772.836 3916.77 1635.93 3458.91 1818 2930.51C2036.16 2296.94 1735.1 650.387 2749.26 942.083C3653.99 1201.6 3836.61 2077.06 4499.72 2078.33C5095.2 2077.24 5576.51 1374.67 5886.57 787.554" stroke="#4A3AFF" stroke-width="5" stroke-miterlimit="10"/>
<path d="M4.08105 107.624C1194.87 353.598 2860.51 2482.92 2749.7 3207.3C2676.98 3681.43 1534.19 3659.98 1237.22 3734.52C817.541 3839.41 1642.27 3400.46 1822.8 2894.33C2040.96 2281.67 1770.08 709.288 2747.79 990.077C3640.43 1245.05 3807.14 2142.68 4476.25 2162.68C5072.73 2180.86 5572.31 1491.75 5895.55 917.357" stroke="#4A3AFF" stroke-width="5" stroke-miterlimit="10"/>
<path d="M4.08105 160.165C1140.33 429.228 2737.52 2486.28 2654.44 3178.03C2599.9 3629.89 1524.65 3603.8 1253.77 3668.89C862.082 3761.79 1648.73 3342.01 1827.62 2858.25C2046.41 2266.4 1805.07 768.192 2746.43 1037.98C3626.88 1288.5 3777.5 2207.4 4452.61 2246.95C5050.1 2282.31 5568.04 1608.92 5904.46 1047.07" stroke="#4A3AFF" stroke-width="5" stroke-miterlimit="10"/>
<path d="M3.99609 212.523C1086.25 504.584 2614.45 2489.19 2559.18 3148.58C2522.82 3578.08 1515.2 3547.36 1270.41 3602.53C906.81 3684.34 1655.28 3283.66 1832.44 2822.16C2051.6 2251.22 1840.08 827.186 2744.98 1085.98C3613.34 1331.95 3747.97 2271.13 4429.26 2331.3C5027.56 2384.11 5564.05 1726 5913.47 1176.88" stroke="#4A3AFF" stroke-width="5" stroke-miterlimit="10"/>
<path d="M3.90625 264.882C1031.8 580.031 2491.37 2491.92 2463.83 3119.13C2445.65 3525.99 1505.75 3490.91 1286.95 3536.63C951.716 3606.62 1662.01 3225.21 1837.26 2786.07C2056.87 2235.95 1875.07 886.271 2743.62 1134.06C3599.71 1375.58 3718.33 2335.3 4405.72 2415.75C5005.02 2485.92 5560.14 1843.08 5922.47 1306.77" stroke="#4A3AFF" stroke-width="5" stroke-miterlimit="10"/>
<path d="M3.90625 317.332C977.35 655.478 2368.2 2493.29 2368.57 3089.77C2368.57 3473.64 1495.93 3434.28 1303.5 3470.64C996.438 3528.54 1668.73 3166.85 1842.08 2750.08C2062.24 2220.68 1909.98 945.084 2741.98 1182.15C3585.98 1419.03 3688.43 2399.3 4382.08 2500.19C4982.02 2587.46 5555.51 1960.52 5931.28 1436.67" stroke="#4A3AFF" stroke-width="5" stroke-miterlimit="10"/>
<path d="M3.81543 369.688C922.81 730.832 2244.85 2494.65 2273.3 3060.32C2291.48 3421 1487.02 3377.55 1320.13 3404.73C1041.16 3450.18 1675.73 3108.49 1847.35 2713.9C2068.24 2204.86 1944.98 1005.71 2741.16 1230.05C3572.53 1464.3 3659.25 2463.01 4359.18 2584.46C4960.3 2688.81 5551.96 2077.6 5940.83 1566.38" stroke="#4A3AFF" stroke-width="5" stroke-miterlimit="10"/>
<path d="M3.73047 422.049C868.367 806.281 2121.14 2495.47 2177.96 3030.87C2213.77 3368.01 1478.03 3320.74 1336.68 3338.74C1086.07 3370.74 1682.74 3050.14 1851.81 2677.99C2073.33 2190.05 1979.07 1064.98 2739.35 1278.14C3558.54 1508.03 3629.35 2526.65 4335.28 2668.9C4937.21 2790.16 5547.42 2194.86 5949.38 1696.28" stroke="#4A3AFF" stroke-width="5" stroke-miterlimit="10"/>
<path d="M3.73047 474.404C813.918 881.634 1997.07 2495.56 2082.69 3001.41C2135.78 3314.74 1469.12 3263.66 1353.23 3272.84C1131.07 3290.38 1689.55 2991.78 1856.63 2641.9C2079.15 2174.77 2014.43 1123.88 2738.35 1326.31C3545.36 1551.84 3600.17 2590.27 4312.19 2753.44C4915.03 2891.51 5543.69 2312.12 5958.83 1826.26" stroke="#4A3AFF" stroke-width="5" stroke-miterlimit="10"/>
<path d="M3.63965 526.763C759.469 957.082 1872.26 2495.1 1987.43 2971.96C2057.24 3261.2 1460.94 3206.39 1369.31 3206.94C1176.24 3208.03 1696.55 2933.51 1860.99 2605.82C2084.6 2159.41 2048.88 1183.06 2736.08 1374.31C3530.82 1595.56 3569.63 2653.63 4287.83 2837.79C4891.58 2992.32 5538.6 2429.29 5966.83 1956.07" stroke="#4A3AFF" stroke-width="5" stroke-miterlimit="10"/>
<path d="M3.54883 579.213C705.021 1032.44 1746.64 2494.1 1892.17 2942.6C1978.07 3207.39 1450.76 3163.76 1386.4 3140.94C1223.88 3159.12 1704.55 2875.24 1866.26 2569.82C2091.15 2144.14 2084.42 1242.05 2735.08 1422.4C3517.73 1639.19 3540.54 2716.9 4264.74 2922.24C4869.49 3093.59 5534.88 2546.55 5976.29 2085.96" stroke="#4A3AFF" stroke-width="5" stroke-miterlimit="10"/>
<path d="M3.54883 631.568C650.481 1107.88 1619.74 2492.74 1796.82 2913.15C1898.08 3153.49 1441.49 3108.4 1402.95 3075.04C1268.96 3083.4 1712.64 2817.07 1871.08 2533.73C2097.51 2128.87 2119.33 1301.04 2733.63 1470.21C3504.09 1682.64 3511 2779.89 4241.29 3006.41C4847.04 3194.3 5530.7 2663.54 5985.28 2215.58" stroke="#4A3AFF" stroke-width="5" stroke-miterlimit="10"/>
<path d="M3.46387 683.93C596.038 1183.24 1491.49 2491.47 1701.56 2883.7C1817.18 3099.68 1432.13 3053.04 1419.77 3009.05C1314.24 3007.5 1720.92 2758.89 1876.18 2497.74C2104.43 2113.6 2154.6 1359.95 2732.54 1518.48C3490.82 1726.46 3481.83 2843.16 4218.11 3091.04C4824.87 3295.29 5527.07 2780.98 5994.47 2345.66" stroke="#4A3AFF" stroke-width="5" stroke-miterlimit="10"/>
<path d="M3.35645 736.285C541.573 1258.68 1361.67 2490.65 1606.28 2854.24C1735.36 3046.13 1422.84 2997.68 1436.02 2943.14C1359.03 2931.6 1728.9 2700.9 1880.7 2461.38C2111.14 2097.78 2189.31 1418.58 2730.8 1566.2C3476.99 1769.72 3452.09 2905.78 4194.28 3175.12C4802.13 3395.82 5522.41 2897.88 6003.18 2475.19" stroke="#4A3AFF" stroke-width="5" stroke-miterlimit="10"/>
<path d="M3.35645 788.646C487.124 1334.04 1230.5 2491.1 1510.93 2824.8C1652.64 2993.23 1413.48 2942.33 1452.66 2877.24C1404.12 2855.79 1737.45 2643 1885.52 2425.66C2118.5 2083.69 2224.31 1477.66 2729.34 1614.56C3463.45 1813.45 3422.72 2968.96 4170.83 3259.84C4779.86 3496.73 5518.23 3015.32 6012.18 2605.36" stroke="#4A3AFF" stroke-width="5" stroke-miterlimit="10"/>
<path d="M3.26562 841.002C432.675 1409.49 1097.33 2493.37 1415.66 2795.34C1569.37 2941.24 1404.21 2886.97 1469.2 2811.25C1449.2 2779.89 1746.26 2585.37 1890.34 2389.57C2126.22 2069.06 2259.3 1536.47 2727.98 1662.37C3449.9 1856.62 3393.46 3031.32 4147.29 3344.01C4757.49 3597.08 5514.05 3132.31 6021.09 2734.99" stroke="#4A3AFF" stroke-width="5" stroke-miterlimit="10"/>
<path d="M3.17578 893.45C378.136 1484.84 963.711 2498.1 1320.4 2765.98C1485.93 2890.24 1394.85 2831.61 1485.75 2745.35C1494.29 2704.08 1755.45 2527.91 1894.8 2353.48C2134.23 2054.87 2294.03 1595.29 2726.16 1710.64C3436 1900.16 3363.91 3094.31 4123.47 3428.64C4734.86 3697.79 5509.6 3249.75 6029.73 2865.06" stroke="#4A3AFF" stroke-width="5" stroke-miterlimit="10"/>
<path d="M3.17578 945.811C323.688 1560.29 829.907 2505.28 1225.14 2736.53C1402.57 2840.34 1398.67 2790.16 1502.29 2679.45C1545.47 2633.27 1764.9 2470.38 1900.07 2317.48C2143.5 2041.33 2329.48 1653.92 2725.16 1758.73C3422.91 1943.43 3335.1 3156.85 4100.29 3513.09C4713.05 3798.33 5505.78 3366.92 6039.09 2994.96" stroke="#4A3AFF" stroke-width="5" stroke-miterlimit="10"/>
<path d="M3.09082 998.438C269.245 1635.92 696.836 2515.19 1130.25 2707.35C1320.32 2791.7 1382.58 2728.53 1519.39 2613.72C1588.02 2556.09 1775.09 2414.38 1905.35 2281.67C2153.59 2028.87 2364.93 1712.91 2724.17 1806.99C3409.91 1986.7 3306.47 3219.66 4077.3 3597.71C4691.42 3898.95 5502.06 3484.45 6048.46 3125.03" stroke="#4A3AFF" stroke-width="5" stroke-miterlimit="10"/>
<path d="M3 1050.53C214.796 1711.1 565.032 2526.37 1034.53 2677.63C1237.87 2743.17 1369.13 2668.54 1535.48 2547.55C1630.74 2478.2 1784.54 2357.94 1909.71 2245.4C2163.5 2017.15 2399.75 1770.73 2722.26 1854.54C3396.37 2028.15 3277.57 3280.57 4053.3 3681.62C4669.24 3998.04 5497.42 3601.08 6057 3254.39" stroke="#4A3AFF" stroke-width="5" stroke-miterlimit="10"/>
<path d="M3 1102.88C160.347 1786.45 434.864 2539.1 939.265 2648.18C1590.74 2789.53 2093.05 1742.45 2720.9 1902.8C3382.83 2071.96 3248.11 3344.2 4029.85 3766.24C4646.79 4099.48 5493.33 3718.61 6066 3384.46" stroke="#4A3AFF" stroke-width="5" stroke-miterlimit="10"/>
</svg>
