<svg width="184" height="59" viewBox="0 0 184 59" fill="none" xmlns="http://www.w3.org/2000/svg">
<path d="M52.75 47C52.3833 47 52.0833 46.8833 51.85 46.65C51.6167 46.4167 51.5 46.1167 51.5 45.75V13.25C51.5 12.8833 51.6167 12.5833 51.85 12.35C52.0833 12.1167 52.3833 12 52.75 12H59.05C59.4167 12 59.7167 12.1167 59.95 12.35C60.1833 12.5833 60.3 12.8833 60.3 13.25V24.35L69.55 12.95C69.6833 12.75 69.9 12.55 70.2 12.35C70.5333 12.1167 70.9667 12 71.5 12H78.7C79 12 79.25 12.1167 79.45 12.35C79.65 12.55 79.75 12.7833 79.75 13.05C79.75 13.2833 79.6833 13.4833 79.55 13.65L67.6 28.75L80.5 45.35C80.6333 45.4833 80.7 45.6833 80.7 45.95C80.7 46.2167 80.5833 46.4667 80.35 46.7C80.15 46.9 79.9167 47 79.65 47H72.2C71.6 47 71.1333 46.8667 70.8 46.6C70.5 46.3333 70.3 46.1333 70.2 46L60.3 33.65V45.75C60.3 46.1167 60.1833 46.4167 59.95 46.65C59.7167 46.8833 59.4167 47 59.05 47H52.75ZM85.3055 47C84.9388 47 84.6388 46.8833 84.4055 46.65C84.1721 46.4167 84.0555 46.1167 84.0555 45.75V12.75C84.0555 12.3833 84.1721 12.0833 84.4055 11.85C84.6388 11.6167 84.9388 11.5 85.3055 11.5H91.2055C91.5721 11.5 91.8721 11.6167 92.1055 11.85C92.3388 12.0833 92.4555 12.3833 92.4555 12.75V45.75C92.4555 46.1167 92.3388 46.4167 92.1055 46.65C91.8721 46.8833 91.5721 47 91.2055 47H85.3055ZM110.662 47.5C107.862 47.5 105.495 47.05 103.562 46.15C101.662 45.25 100.195 43.9667 99.1621 42.3C98.1621 40.6 97.5954 38.5833 97.4621 36.25C97.4288 35.5833 97.4121 34.8333 97.4121 34C97.4121 33.1333 97.4288 32.3833 97.4621 31.75C97.5954 29.3833 98.1954 27.3667 99.2621 25.7C100.329 24.0333 101.812 22.75 103.712 21.85C105.645 20.95 107.962 20.5 110.662 20.5C113.395 20.5 115.712 20.95 117.612 21.85C119.545 22.75 121.045 24.0333 122.112 25.7C123.179 27.3667 123.779 29.3833 123.912 31.75C123.945 32.3833 123.962 33.1333 123.962 34C123.962 34.8333 123.945 35.5833 123.912 36.25C123.779 38.5833 123.195 40.6 122.162 42.3C121.162 43.9667 119.695 45.25 117.762 46.15C115.862 47.05 113.495 47.5 110.662 47.5ZM110.662 41.4C112.162 41.4 113.245 40.95 113.912 40.05C114.612 39.15 115.012 37.8 115.112 36C115.145 35.5 115.162 34.8333 115.162 34C115.162 33.1667 115.145 32.5 115.112 32C115.012 30.2333 114.612 28.9 113.912 28C113.245 27.0667 112.162 26.6 110.662 26.6C109.195 26.6 108.112 27.0667 107.412 28C106.712 28.9 106.329 30.2333 106.262 32C106.229 32.5 106.212 33.1667 106.212 34C106.212 34.8333 106.229 35.5 106.262 36C106.329 37.8 106.712 39.15 107.412 40.05C108.112 40.95 109.195 41.4 110.662 41.4ZM137.153 47C136.653 47 136.286 46.8833 136.053 46.65C135.82 46.3833 135.62 46.0833 135.453 45.75L126.003 22.55C125.936 22.4167 125.903 22.2667 125.903 22.1C125.903 21.8 126.003 21.55 126.203 21.35C126.436 21.1167 126.72 21 127.053 21H132.703C133.136 21 133.47 21.1167 133.703 21.35C133.936 21.5833 134.086 21.8167 134.153 22.05L139.803 37.4L145.503 22.05C145.57 21.8167 145.72 21.5833 145.953 21.35C146.186 21.1167 146.52 21 146.953 21H152.603C152.903 21 153.17 21.1167 153.403 21.35C153.636 21.55 153.753 21.8 153.753 22.1C153.753 22.2667 153.72 22.4167 153.653 22.55L144.203 45.75C144.07 46.0833 143.87 46.3833 143.603 46.65C143.37 46.8833 142.986 47 142.453 47H137.153ZM168.663 47.5C164.73 47.5 161.596 46.4333 159.263 44.3C156.93 42.1667 155.713 39 155.613 34.8C155.613 34.5667 155.613 34.2667 155.613 33.9C155.613 33.5333 155.613 33.25 155.613 33.05C155.713 30.4167 156.296 28.1667 157.363 26.3C158.463 24.4 159.963 22.9667 161.863 22C163.796 21 166.046 20.5 168.613 20.5C171.546 20.5 173.963 21.0833 175.863 22.25C177.796 23.4167 179.246 25 180.213 27C181.18 29 181.663 31.2833 181.663 33.85V35.05C181.663 35.4167 181.53 35.7167 181.263 35.95C181.03 36.1833 180.746 36.3 180.413 36.3H164.413C164.413 36.3333 164.413 36.3833 164.413 36.45C164.413 36.5167 164.413 36.5833 164.413 36.65C164.446 37.6167 164.613 38.5 164.913 39.3C165.213 40.1 165.68 40.7333 166.313 41.2C166.946 41.6667 167.713 41.9 168.613 41.9C169.28 41.9 169.83 41.8 170.263 41.6C170.73 41.3667 171.113 41.1167 171.413 40.85C171.713 40.55 171.946 40.3 172.113 40.1C172.413 39.7667 172.646 39.5667 172.813 39.5C173.013 39.4 173.313 39.35 173.713 39.35H179.913C180.246 39.35 180.513 39.45 180.713 39.65C180.946 39.8167 181.046 40.0667 181.013 40.4C180.98 40.9667 180.696 41.65 180.163 42.45C179.63 43.25 178.846 44.05 177.813 44.85C176.813 45.6167 175.546 46.25 174.013 46.75C172.48 47.25 170.696 47.5 168.663 47.5ZM164.413 31.35H172.863V31.25C172.863 30.1833 172.696 29.25 172.363 28.45C172.063 27.65 171.58 27.0333 170.913 26.6C170.28 26.1667 169.513 25.95 168.613 25.95C167.713 25.95 166.946 26.1667 166.313 26.6C165.713 27.0333 165.246 27.65 164.913 28.45C164.58 29.25 164.413 30.1833 164.413 31.25V31.35Z" fill="white"/>
<rect y="29" width="21" height="21" fill="#5290ED"/>
<rect x="20" y="8" width="21" height="21" fill="white"/>
<rect x="24" y="33" width="12" height="12" rx="6" fill="white"/>
<rect x="4" y="12" width="12" height="12" rx="6" fill="#5290ED"/>
</svg>
